<svg xmlns="http://www.w3.org/2000/svg" width="53" height="32" viewBox="0 0 53 32">
  <metadata><?xpacket begin="﻿" id="W5M0MpCehiHzreSzNTczkc9d"?>
<x:xmpmeta xmlns:x="adobe:ns:meta/" x:xmptk="Adobe XMP Core 5.6-c142 79.160924, 2017/07/13-01:06:39        ">
   <rdf:RDF xmlns:rdf="http://www.w3.org/1999/02/22-rdf-syntax-ns#">
      <rdf:Description rdf:about=""/>
   </rdf:RDF>
</x:xmpmeta>
                                                                                                    
                                                                                                    
                                                                                                    
                                                                                                    
                                                                                                    
                                                                                                    
                                                                                                    
                                                                                                    
                                                                                                    
                                                                                                    
                                                                                                    
                                                                                                    
                                                                                                    
                                                                                                    
                                                                                                    
                                                                                                    
                                                                                                    
                                                                                                    
                                                                                                    
                                                                                                    
                           
<?xpacket end="w"?></metadata>
<defs>
    <style>
      .cls-1 {
        fill: #82b236;
        fill-rule: evenodd;
      }
    </style>
  </defs>
  <path id="Forma_1" data-name="Forma 1" class="cls-1" d="M51.675,20.817V20.226L46.9,3.905H36.332V0h-25.4V10.1H5.523L3.236,13.278h7.7v2.381H2.282l-2.287,3.174H10.93v1.984H9.716v5.356H10.93v0.794h0.826a5.874,5.874,0,0,0,5.71,5.026,5.872,5.872,0,0,0,5.708-5.026H36.191a5.755,5.755,0,0,0,11.417,0h4.066V26.173h1.337V20.817H51.675ZM17.466,29.157a3.2,3.2,0,1,1,3.069-3.2A3.139,3.139,0,0,1,17.466,29.157Zm24.435,0a3.2,3.2,0,1,1,3.069-3.2A3.139,3.139,0,0,1,41.9,29.157ZM39.059,13.973V6.744h5.822L47,13.973H39.059Z"/>
</svg>
