<svg xmlns="http://www.w3.org/2000/svg" width="33" height="34" viewBox="0 0 33 34">
  <metadata><?xpacket begin="﻿" id="W5M0MpCehiHzreSzNTczkc9d"?>
<x:xmpmeta xmlns:x="adobe:ns:meta/" x:xmptk="Adobe XMP Core 5.6-c142 79.160924, 2017/07/13-01:06:39        ">
   <rdf:RDF xmlns:rdf="http://www.w3.org/1999/02/22-rdf-syntax-ns#">
      <rdf:Description rdf:about=""/>
   </rdf:RDF>
</x:xmpmeta>
                                                                                                    
                                                                                                    
                                                                                                    
                                                                                                    
                                                                                                    
                                                                                                    
                                                                                                    
                                                                                                    
                                                                                                    
                                                                                                    
                                                                                                    
                                                                                                    
                                                                                                    
                                                                                                    
                                                                                                    
                                                                                                    
                                                                                                    
                                                                                                    
                                                                                                    
                                                                                                    
                           
<?xpacket end="w"?></metadata>
<defs>
    <style>
      .cls-1 {
        fill: #82b236;
        fill-rule: evenodd;
      }
    </style>
  </defs>
  <path id="Forma_1" data-name="Forma 1" class="cls-1" d="M24.72,7.176a2.335,2.335,0,0,0,2.323-2.354V2.36a2.323,2.323,0,1,0-4.646,0V4.824A2.333,2.333,0,0,0,24.72,7.176Zm8.255-3.1H28.3v1.2a3.537,3.537,0,1,1-7.073,0v-1.2H11.786v1.2a3.538,3.538,0,1,1-7.075,0v-1.2l-4.72-.06V34H30.651l2.358-.007ZM30.651,31.61H2.349V12.46h28.3V31.61h0ZM8.21,7.176a2.336,2.336,0,0,0,2.325-2.354V2.36a2.323,2.323,0,1,0-4.646,0V4.824A2.332,2.332,0,0,0,8.21,7.176Zm3.582,7.853H15.51v3.329H11.792V15.029Zm6.008,0h3.721v3.329H17.8V15.029Zm5.575,0h3.717v3.329H23.375V15.029ZM11.792,20.558H15.51v3.327H11.792V20.558Zm6.008,0h3.721v3.327H17.8V20.558Zm5.575,0h3.717v3.327H23.375V20.558ZM11.792,26.2H15.51v3.327H11.792V26.2Zm-5.9-5.639H9.6v3.327H5.889V20.558Zm0,5.639H9.6v3.327H5.889V26.2Zm11.911,0h3.721v3.327H17.8V26.2Zm5.575,0h3.717v3.327H23.375V26.2Z"/>
</svg>
