<svg xmlns="http://www.w3.org/2000/svg" width="27" height="36" viewBox="0 0 27 36">
  <metadata><?xpacket begin="﻿" id="W5M0MpCehiHzreSzNTczkc9d"?>
<x:xmpmeta xmlns:x="adobe:ns:meta/" x:xmptk="Adobe XMP Core 5.6-c142 79.160924, 2017/07/13-01:06:39        ">
   <rdf:RDF xmlns:rdf="http://www.w3.org/1999/02/22-rdf-syntax-ns#">
      <rdf:Description rdf:about=""/>
   </rdf:RDF>
</x:xmpmeta>
                                                                                                    
                                                                                                    
                                                                                                    
                                                                                                    
                                                                                                    
                                                                                                    
                                                                                                    
                                                                                                    
                                                                                                    
                                                                                                    
                                                                                                    
                                                                                                    
                                                                                                    
                                                                                                    
                                                                                                    
                                                                                                    
                                                                                                    
                                                                                                    
                                                                                                    
                                                                                                    
                           
<?xpacket end="w"?></metadata>
<defs>
    <style>
      .cls-1 {
        fill: #fff;
        fill-rule: evenodd;
      }
    </style>
  </defs>
  <path id="Forma_1" data-name="Forma 1" class="cls-1" d="M12,18.519c0.282-.009.5-0.02,0.64-0.024v4.262a16.026,16.026,0,0,1-1.624-.146,1.7,1.7,0,0,1-.95-0.411,1.979,1.979,0,0,1-.5-1.448c0-1.038.215-1.662,0.649-1.878a2.384,2.384,0,0,1,.532-0.207,3.806,3.806,0,0,1,.556-0.1C11.483,18.544,11.716,18.53,12,18.519Zm-4.475-8.13H19.486a1.324,1.324,0,0,0,0-2.647H7.524A1.324,1.324,0,0,0,7.524,10.389ZM7.886,7.076H19.13a3.42,3.42,0,0,0,.689-1.711c0.16-1.313,1.159-4.693,0-5.291C18.772-.467,17.2,2.991,16.032,2.9,15.143,2.831,14.4.33,13.507,0.33c-0.937,0-1.714,2.643-2.651,2.7C9.692,3.1,8.247-.444,7.2.073c-1.17.576-.16,3.978,0,5.291A3.382,3.382,0,0,0,7.886,7.076Zm8.378,18.378a10.912,10.912,0,0,0-1.951-.163V29.75a5.387,5.387,0,0,0,2.45-.379,2.3,2.3,0,0,0,.517-0.579,2.468,2.468,0,0,0,.215-1.214,2.914,2.914,0,0,0-.3-1.513A1.418,1.418,0,0,0,16.264,25.454Zm10.258,9.963a1.783,1.783,0,0,1-2.547.053,1.916,1.916,0,0,1-.18-0.206H3.2a1.465,1.465,0,0,1-.093.124,1.775,1.775,0,0,1-2.541.123,1.868,1.868,0,0,1,.476-2.993V16.9a4.147,4.147,0,0,1,1.714-3.141l4.318-2.732a3.709,3.709,0,0,0,.383.028H19.54c0.132,0,.256-0.016.383-0.028l4.319,2.733A4.142,4.142,0,0,1,25.956,16.9V32.53A1.845,1.845,0,0,1,26.522,35.417Zm-6.16-7.93a4.95,4.95,0,0,0-1.024-3.538,3.834,3.834,0,0,0-1.858-.873,22.827,22.827,0,0,0-3.168-.319V18.5c0.122,0.013.369,0.021,0.742,0.027a6.332,6.332,0,0,1,.907.064,1.783,1.783,0,0,1,.669.247,1.039,1.039,0,0,1,.436.613,4.375,4.375,0,0,1,.134,1.261h2.617a7.783,7.783,0,0,0-.318-2.466,2.75,2.75,0,0,0-.974-1.385,3.945,3.945,0,0,0-1.617-.634,19.029,19.029,0,0,0-2.6-.22v-1.53H12.638V16a16.229,16.229,0,0,0-3.1.244,3.31,3.31,0,0,0-1.984,1.186,5.362,5.362,0,0,0-.818,3.324,4.929,4.929,0,0,0,.582,2.664,2.942,2.942,0,0,0,.919.9,4.421,4.421,0,0,0,1.216.508,12.249,12.249,0,0,0,1.542.273l1.643,0.19v4.459c-0.561,0-1.132-.027-1.718-0.082a2.23,2.23,0,0,1-.937-0.285,1.493,1.493,0,0,1-.55-0.721,5.711,5.711,0,0,1-.17-1.746H6.643a11.557,11.557,0,0,0,.223,2.574,3.079,3.079,0,0,0,1.016,1.618,4.13,4.13,0,0,0,1.947.9,14.685,14.685,0,0,0,2.807.235V33.9h1.676v-1.66a9.544,9.544,0,0,0,4.207-.748Q20.308,30.605,20.362,27.487Z"/>
</svg>
