<svg xmlns="http://www.w3.org/2000/svg" width="34" height="34" viewBox="0 0 34 34">
  <metadata><?xpacket begin="﻿" id="W5M0MpCehiHzreSzNTczkc9d"?>
<x:xmpmeta xmlns:x="adobe:ns:meta/" x:xmptk="Adobe XMP Core 5.6-c142 79.160924, 2017/07/13-01:06:39        ">
   <rdf:RDF xmlns:rdf="http://www.w3.org/1999/02/22-rdf-syntax-ns#">
      <rdf:Description rdf:about=""/>
   </rdf:RDF>
</x:xmpmeta>
                                                                                                    
                                                                                                    
                                                                                                    
                                                                                                    
                                                                                                    
                                                                                                    
                                                                                                    
                                                                                                    
                                                                                                    
                                                                                                    
                                                                                                    
                                                                                                    
                                                                                                    
                                                                                                    
                                                                                                    
                                                                                                    
                                                                                                    
                                                                                                    
                                                                                                    
                                                                                                    
                           
<?xpacket end="w"?></metadata>
<defs>
    <style>
      .cls-1 {
        fill: #82b236;
        fill-rule: evenodd;
      }
    </style>
  </defs>
  <path id="Forma_1" data-name="Forma 1" class="cls-1" d="M15.583,18.483h2.833v9.878a5.6,5.6,0,0,1-5.667,5.645,5.6,5.6,0,0,1-5.667-5.645,1.417,1.417,0,0,1,2.833,0,2.764,2.764,0,0,0,2.833,2.822,2.764,2.764,0,0,0,2.833-2.822V18.483Zm2.833-15.46V0H15.583V3.023C6.89,3.682,0,10.313,0,18.483l0.85-.425a11.17,11.17,0,0,1,9.491,0l0.992,0.425,0.992-.425a10.255,10.255,0,0,1,9.492,0l0.849,0.425,0.992-.425a10.255,10.255,0,0,1,9.492,0L34,18.483C34,10.313,27.11,3.682,18.416,3.023Z"/>
</svg>
