<svg xmlns="http://www.w3.org/2000/svg" width="165.24" height="61" viewBox="0 0 165.24 61"><defs><style>.a{fill:#3b3c43;}.b{fill:#ffcf21;}.c{fill:#839db1;}.d{fill:none;}</style></defs><path class="a" d="M16.9,8.268l5.088,8.039H11.768ZM16.9,0,0,25.805H5.769l3.225-5.09H24.8l3.225,5.09H33.8Z"/><path class="a" d="M437.614,5.452a40.3,40.3,0,0,0-11.4-1.272c-3.271,0-8.858.136-8.858,3,0,6.406,22.4-.908,22.4,11.13,0,6.77-7.722,7.951-14.356,7.951a67.292,67.292,0,0,1-13.533-1.317l.18-4.407a56.9,56.9,0,0,0,13.449,1.544c4.5,0,9.358-.588,9.358-3.543,0-6.814-22.4.635-22.4-11.039,0-6.724,7.995-7.5,13.669-7.5A44.1,44.1,0,0,1,437.8,1.318Z" transform="translate(-377.241 0)"/><path class="a" d="M767.977,30.759V9.771H756.62V5.41h27.893V9.771h-11.4V30.759Z" transform="translate(-693.021 -4.955)"/><path class="a" d="M1152.905,30.761l-6.22-8.722h-9.816v8.722h-5.179V5.41h17.4c6.543,0,9.4,4.406,9.4,8.313,0,3.135-2.043,6.27-6.269,7.632l6.631,9.405Zm-16.036-20.99v7.9h10.993c3.817,0,5.225-1.817,5.225-3.951,0-2.09-1.408-3.951-5.225-3.951Z" transform="translate(-1036.564 -4.955)"/><rect class="a" width="5.179" height="25.349" transform="translate(127.152 0.455)"/><path class="a" d="M1659.553,5.452a40.3,40.3,0,0,0-11.4-1.272c-3.271,0-8.858.136-8.858,3,0,6.406,22.4-.908,22.4,11.13,0,6.77-7.724,7.951-14.356,7.951a67.289,67.289,0,0,1-13.533-1.317l.182-4.407a56.9,56.9,0,0,0,13.449,1.544c4.5,0,9.358-.588,9.358-3.543,0-6.814-22.4.635-22.4-11.039,0-6.724,8-7.5,13.674-7.5a44.112,44.112,0,0,1,11.676,1.318Z" transform="translate(-1496.469 0)"/><path class="a" d="M764.749,362.555v8.9H759.57V346.11h16.854c6.542,0,9.267,4.455,9.267,8.222,0,3.726-2.725,8.223-9.267,8.223Zm0-12.039v7.677H775.2c3.726,0,5.089-1.908,5.089-3.862s-1.362-3.815-5.089-3.815Z" transform="translate(-695.723 -317.017)"/><path class="a" d="M1103.422,366.5l-5.9-16.037-11.948,16.491-11.9-16.491-5.906,16.037h-5.542l10.176-25.8,13.174,18.171,13.22-18.171,10.176,25.8Z" transform="translate(-972.934 -312.062)"/><path class="a" d="M1660.48,371.45V346.1h25.666v4.316H1665.7v5.815h16.9v4.36h-16.9v6.5h20.442v4.361Z" transform="translate(-1520.906 -317.008)"/><g transform="translate(0.272 17.979)"><path class="a" d="M85.372,572.88a39.843,39.843,0,0,1-8.289.869c-.925,0-1.849-.034-2.757-.1A27.907,27.907,0,0,1,54.22,575.26a24.43,24.43,0,0,0,11.648,8.994,39.611,39.611,0,0,1,19.5-11.371" transform="translate(-49.935 -542.705)"/><path class="a" d="M473.643,563.1a39.464,39.464,0,0,0-14.168-3.183c-.119.252-.244.5-.372.751-.042.084-.084.161-.131.242-.084.168-.175.331-.266.5-.054.1-.111.19-.168.286-.084.144-.168.292-.252.435-.062.1-.127.2-.191.3-.084.135-.168.269-.252.4-.067.1-.138.205-.208.308-.084.128-.168.252-.26.382-.073.1-.149.2-.222.306-.089.122-.179.244-.271.365-.076.1-.156.2-.234.3-.093.118-.185.236-.28.353-.084.1-.168.2-.246.3-.095.113-.19.226-.288.336l-.264.293c-.1.109-.2.219-.3.327s-.178.189-.268.282-.2.212-.307.315-.187.183-.281.274-.21.2-.318.3-.192.178-.288.265-.218.2-.328.292-.2.168-.3.252-.224.19-.336.282-.2.168-.306.245-.23.182-.346.27-.209.158-.315.235-.238.173-.356.257-.215.152-.324.226l-.158.111-.283.2A39.488,39.488,0,0,1,473,563.1c.214,0,.428,0,.642.008" transform="translate(-413.143 -530.834)"/><path class="b" d="M215.651,568.837c.106-.078.211-.156.316-.237s.232-.177.346-.269.205-.162.307-.245.226-.187.336-.281l.3-.252c.109-.1.219-.194.326-.292s.194-.176.29-.265.212-.2.318-.3.187-.181.278-.274.206-.209.308-.315.181-.187.27-.282.2-.219.3-.328.173-.193.259-.29.192-.226.287-.336.168-.2.247-.3c.094-.116.186-.234.279-.352.078-.1.157-.2.234-.3.092-.121.18-.244.27-.365.074-.1.149-.2.221-.306.089-.126.175-.252.261-.381.07-.1.14-.2.208-.308.084-.132.168-.267.252-.4.064-.1.129-.2.19-.3.088-.143.168-.288.252-.434.055-.1.113-.191.168-.288q.136-.245.267-.493c.043-.084.084-.161.13-.243.128-.252.252-.5.372-.751-.5-.018-1-.031-1.5-.031a39.834,39.834,0,0,0-8.282.863q-.556.117-1.105.252a39.6,39.6,0,0,0-19.5,11.371,24.431,24.431,0,0,0,22.127-2.774c.108-.074.215-.15.322-.225s.239-.168.356-.257" transform="translate(-176.912 -530.55)"/><path class="c" d="M27.631,466.047A39.512,39.512,0,0,1,3.24,455.4a24.142,24.142,0,0,0,4.287,12.255,27.906,27.906,0,0,0,20.105-1.607" transform="translate(-3.24 -435.099)"/><path class="c" d="M311.752,216.714a11.729,11.729,0,0,0-3.3-2.824,27.643,27.643,0,0,1-4.229,21.662,27.938,27.938,0,0,1-10.809,9.286c.911.062,1.831.1,2.758.1a39.911,39.911,0,0,0,8.3-.871c.358-.088.727-.172,1.1-.251a39.836,39.836,0,0,1,8.289-.87c.5,0,1,.012,1.5.031a24.383,24.383,0,0,0,2.329-10.381c0-7.857-4.331-13.89-5.931-15.879" transform="translate(-269.019 -213.89)"/></g><rect class="d" width="165.24" height="61"/></svg>