<?xml version="1.0" encoding="UTF-8"?>
<!-- Generator: Adobe Illustrator 27.7.0, SVG Export Plug-In . SVG Version: 6.00 Build 0)  -->
<svg xmlns="http://www.w3.org/2000/svg" xmlns:xlink="http://www.w3.org/1999/xlink" version="1.1" id="Layer_1" x="0px" y="0px" viewBox="0 0 136.3 55.3" style="enable-background:new 0 0 136.3 55.3;" xml:space="preserve">
<style type="text/css">
	.st0{fill-rule:evenodd;clip-rule:evenodd;fill:#071897;}
	.st1{fill-rule:evenodd;clip-rule:evenodd;fill:#FBFFFF;}
	.st2{fill-rule:evenodd;clip-rule:evenodd;fill:#D12F13;}
</style>
<g>
	<polygon class="st0" points="0,0 136.3,0 136.3,55.3 0,55.3 0,0  "></polygon>
	<polygon class="st1" points="13.2,7.8 22.9,7.8 22.9,7.3 13.2,7.3 13.2,7.8  "></polygon>
	<polygon class="st1" points="22.9,8.3 13.2,8.3 13.2,9 22.9,9 22.9,8.3  "></polygon>
	<polygon class="st1" points="32.3,7.8 44.9,7.8 45.6,7.3 32.9,7.3 32.3,7.8  "></polygon>
	<polygon class="st1" points="44.4,8.3 31.8,8.3 31,9 43.5,9 44.4,8.3  "></polygon>
	<path class="st1" d="M60.1,7.8h15.6C73,6.8,70,6.4,67,6.5C64.5,6.5,62.2,7,60.1,7.8L60.1,7.8z"></path>
	<path class="st1" d="M76.8,8.3H58.9c-0.4,0.2-0.9,0.4-1.3,0.7H78C77.6,8.7,77.2,8.5,76.8,8.3L76.8,8.3z"></path>
	<polygon class="st1" points="94.9,7.8 122.1,7.8 122.1,7.2 94.9,7.2 94.9,7.8  "></polygon>
	<polygon class="st1" points="122.1,8.3 94.9,8.3 94.9,9 122.1,9 122.1,8.3  "></polygon>
	<polygon class="st1" points="22.9,9.5 13.2,9.5 13.2,10.4 22.9,10.4 22.9,9.5  "></polygon>
	<polygon class="st1" points="43,9.5 30.5,9.5 29.6,10.4 41.9,10.4 43,9.5  "></polygon>
	<path class="st1" d="M78.7,9.5H56.9c-0.4,0.3-0.8,0.6-1.2,0.9h24.1C79.5,10.1,79.1,9.8,78.7,9.5L78.7,9.5z"></path>
	<polygon class="st1" points="122.1,9.5 94.9,9.5 94.9,10.4 122.1,10.4 122.1,9.5  "></polygon>
	<polygon class="st1" points="22.9,10.9 13.2,10.9 13.2,12.1 22.9,12.1 22.9,10.9  "></polygon>
	<polygon class="st1" points="41.3,10.9 29,10.9 27.7,12.1 39.9,12.1 41.3,10.9  "></polygon>
	<path class="st1" d="M80.3,10.9H55.1c-0.4,0.4-0.8,0.8-1.2,1.3h27.5C81.1,11.7,80.7,11.3,80.3,10.9L80.3,10.9z"></path>
	<polygon class="st1" points="122.1,10.9 94.9,10.9 94.9,12.1 122.1,12.1 122.1,10.9  "></polygon>
	<polygon class="st1" points="22.9,12.6 13.2,12.6 13.2,14.2 22.9,14.2 22.9,12.6  "></polygon>
	<polygon class="st1" points="39.3,12.6 27.1,12.6 25.5,14.2 37.5,14.2 39.3,12.6  "></polygon>
	<path class="st1" d="M81.8,12.6H53.5c-0.2,0.3-0.4,0.5-0.5,0.8c-0.2,0.3-0.3,0.5-0.4,0.8h11.7c0.7-0.4,1.5-0.7,2.4-0.8   c1.4-0.2,2.9,0.1,4,0.8c0,0,0.1,0.1,0.1,0.1h11.7C82.3,13.6,82.1,13.1,81.8,12.6L81.8,12.6z"></path>
	<polygon class="st1" points="122.1,12.6 94.9,12.6 94.9,14.2 105.3,14.2 105.3,14.2 122.1,14.2 122.1,12.6  "></polygon>
	<polygon class="st1" points="36.9,14.7 25,14.7 22.9,16.6 22.9,14.7 13.2,14.7 13.2,17.8 33.1,17.8 36.9,14.7  "></polygon>
	<path class="st1" d="M63.6,14.7H52.3c-0.5,1-0.9,2.1-1.1,3.2h10.8c0.1-0.3,0.2-0.6,0.3-1c0.2-0.6,0.5-1.2,1-1.7   C63.3,15,63.5,14.8,63.6,14.7L63.6,14.7z"></path>
	<path class="st1" d="M82.7,14.7H71.5c0.8,0.8,1.2,1.8,1.2,2.8h10.7l-0.1-0.6C83.2,16.1,83,15.4,82.7,14.7L82.7,14.7z"></path>
	<polygon class="st1" points="105.3,14.7 94.9,14.7 94.9,17.8 105.3,17.8 105.3,14.7  "></polygon>
	<polygon class="st1" points="32.7,18.3 13.2,18.3 13.2,22 35.7,22 32.7,18.3  "></polygon>
	<path class="st1" d="M61.8,18.3H51.1c-0.2,1.2-0.3,2.5-0.2,3.7h10.8C61.5,20.8,61.6,19.6,61.8,18.3L61.8,18.3z"></path>
	<polygon class="st1" points="112.9,18.3 112.9,18.3 94.9,18.3 94.9,22 119.5,22 119.5,18.3 112.9,18.3  "></polygon>
	<polygon class="st1" points="36.1,22.5 13.2,22.5 13.2,27.5 22.9,27.5 22.9,26.5 25.7,24 28.4,27.5 40.1,27.5 36.1,22.5  "></polygon>
	<path class="st1" d="M61.7,22.5H50.9c0.1,1.4,0.5,2.7,1,4c0.1,0.3,0.3,0.6,0.4,1h11.6c-0.6-0.5-1.1-1.2-1.4-1.9   C62.1,24.6,61.8,23.6,61.7,22.5L61.7,22.5z"></path>
	<polygon class="st1" points="119.5,22.5 94.9,22.5 94.9,27.5 105.3,27.5 105.3,24.9 119.5,24.9 119.5,22.5  "></polygon>
	<polygon class="st1" points="105.3,28 94.9,28 94.9,34.8 105.3,34.8 105.3,28  "></polygon>
	<path class="st1" d="M71.4,27.5h11.3c0.4-1.1,0.7-2.2,0.8-3.4H72.9c-0.1,0.6-0.2,1.3-0.4,1.9c-0.1,0.3-0.3,0.6-0.4,0.9   C71.8,27.1,71.6,27.3,71.4,27.5L71.4,27.5z"></path>
	<path class="st1" d="M82.5,28H70.7c-0.4,0.2-0.9,0.4-1.4,0.5c-1.5,0.4-3.2,0.2-4.6-0.4c-0.1,0-0.1-0.1-0.2-0.1h-12   c1.4,2.6,4,4.8,7.3,6.1c3.5,1.2,7.3,1.6,11.1,1.1C76.2,34.8,80.7,32,82.5,28L82.5,28z"></path>
	<polygon class="st1" points="22.9,28 13.2,28 13.2,34.8 22.9,34.8 22.9,28  "></polygon>
	<polygon class="st1" points="40.5,28 28.8,28 34,34.8 46,34.8 40.5,28  "></polygon>
	<polygon class="st2" points="12.6,49.1 122.3,49.1 122.3,37.5 12.6,37.5 12.6,49.1  "></polygon>
	<path class="st1" d="M55.5,39.3h1.7l0.8,3.1l0.8-3.1h1.7l-1.7,5.2v2.8h-1.5v-2.8L55.5,39.3L55.5,39.3z M50.3,41.3v-2h4.6v2h-1.6v6   h-1.5v-6H50.3L50.3,41.3z M47.8,39.3h1.5v8h-1.5V39.3L47.8,39.3z M43.4,47.3v-8h1.5v6h2v2H43.4L43.4,47.3z M40.9,39.3h1.5v8h-1.5   V39.3L40.9,39.3z M35.5,39.3H38c0.3,0,0.6,0,0.8,0.1c0.7,0.2,1.1,1.3,1,2.4c0,0.2-0.1,0.3-0.1,0.5c-0.1,0.2-0.2,0.4-0.4,0.6   l-0.1,0.1c0.5,0.3,0.8,1.1,0.8,2c0,0.9-0.3,1.7-0.8,2c-0.3,0.2-0.5,0.3-0.8,0.3c-0.1,0-0.3,0-0.4,0h-2.5V39.3L35.5,39.3z M37,44   v1.4h1c0.1,0,0.2,0,0.3-0.1c0.2-0.1,0.3-0.3,0.3-0.6c0-0.1,0-0.3-0.1-0.4c0-0.1-0.1-0.2-0.1-0.2c0,0-0.1-0.1-0.1-0.1   C38.1,44,38,44,37.9,44H37L37,44z M37,41.2v1.2h0.8c0,0,0.1,0,0.1,0c0.1,0,0.1,0,0.2,0c0.1,0,0.2-0.1,0.2-0.3c0-0.1,0-0.3,0-0.4   c0-0.1-0.1-0.3-0.1-0.3c0,0-0.1-0.1-0.1-0.1c-0.1,0-0.2-0.1-0.4-0.1H37L37,41.2z M29.5,47.3l1.8-7.9h1.7l1.6,7.9h-1.6l-0.2-1.2   h-1.5l-0.2,1.2H29.5L29.5,47.3z M31.6,44.5h0.9L32,41.7L31.6,44.5L31.6,44.5z M24.5,44.6h1.5c0,0.2,0,0.3,0.1,0.5   c0.1,0.3,0.2,0.5,0.4,0.6c0.2,0.1,0.5,0.1,0.7,0c0.1,0,0.1-0.1,0.2-0.2c0.1-0.2,0.1-0.5,0-0.7c0-0.1-0.1-0.1-0.1-0.1   c-0.1-0.1-0.2-0.1-0.3-0.2c-0.4-0.2-0.9-0.4-1.3-0.6c-0.3-0.2-0.5-0.4-0.7-0.7c-0.5-0.9-0.5-2.4,0.1-3.2c0.1-0.2,0.2-0.3,0.4-0.4   c0.4-0.2,0.8-0.4,1.1-0.4c0.4,0,0.7,0,1.1,0.2c0.4,0.2,0.8,0.6,1,1.2c0.1,0.2,0.1,0.5,0.1,0.7c0,0.2,0,0.3,0,0.5h-1.5   c0-0.1,0-0.2,0-0.3c0-0.1,0-0.1,0-0.2c0-0.1-0.1-0.1-0.1-0.2c-0.1-0.1-0.2-0.1-0.3-0.2c-0.2,0-0.4,0-0.6,0.1   c-0.1,0-0.1,0.1-0.1,0.2c-0.1,0.1-0.1,0.3-0.1,0.4c0,0.1,0,0.1,0.1,0.2c0,0.1,0.1,0.1,0.1,0.1c0.1,0.1,0.2,0.1,0.3,0.2   c0.4,0.2,0.9,0.4,1.3,0.6c0.3,0.1,0.5,0.4,0.7,0.7c0.2,0.3,0.3,0.6,0.3,1c0.1,1.3-0.4,2.5-1.2,2.8c-0.7,0.3-1.4,0.3-2.1,0   C25,46.9,24.6,45.9,24.5,44.6L24.5,44.6L24.5,44.6z M22.1,39.3h1.5v8h-1.5V39.3L22.1,39.3z M16.6,39.3h2.3c0.9,0,1.8,0.9,2.1,2.3   c0.2,1,0.2,2,0.1,3c-0.2,1.4-1,2.5-1.9,2.6l-0.3,0.1l0,0h-2.3V39.3L16.6,39.3z M18.1,45.4h0.4c0.1,0,0.2,0,0.3-0.1   c0.3-0.1,0.5-0.4,0.6-0.8c0.2-0.7,0.2-1.5,0.1-2.2c-0.1-0.6-0.5-1-0.9-1.1l-0.5,0V45.4L18.1,45.4z"></path>
	<path class="st1" d="M118.8,42.1l-1.5,0.1c0-0.2,0-0.3-0.1-0.5c-0.1-0.2-0.2-0.4-0.3-0.5c-0.4-0.3-0.9,0-1.2,0.7   c-0.1,0.3-0.2,0.7-0.2,1c0,0.6,0,1.2,0.2,1.8c0.1,0.3,0.3,0.6,0.5,0.8c0.3,0.2,0.7,0.2,1-0.2c0.1-0.1,0.1-0.2,0.2-0.3   c0-0.1,0.1-0.2,0.1-0.3h-0.7v-1.7h2.1v4.4h-1l0-0.8c-0.1,0.1-0.1,0.2-0.2,0.3c-0.2,0.3-0.5,0.6-0.8,0.6c-1.3,0.4-2.5-0.8-2.8-2.8   l0,0c-0.2-1.1-0.1-2.2,0.1-3.2c0.3-1.2,1.1-2.1,2-2.2c0.5-0.1,1,0,1.4,0.3C118.3,39.9,118.7,40.9,118.8,42.1L118.8,42.1L118.8,42.1   z M108.5,39.3h1.6l1.4,4.3v-4.3h1.5v8h-1.5l-1.4-4.4v4.4h-1.5V39.3L108.5,39.3z M106,39.3h1.5v8H106V39.3L106,39.3z M100.4,39.3   h2.5c0.3,0,0.6,0.1,0.9,0.2c0.8,0.3,1.3,1.5,1.1,2.7c0,0.3-0.1,0.6-0.3,0.9c-0.1,0.2-0.2,0.4-0.4,0.5c-0.1,0-0.1,0.1-0.2,0.1   c0.1,0,0.2,0.1,0.3,0.2c0.2,0.2,0.3,0.4,0.4,0.8c0.1,0.4,0.1,0.7,0.1,1.1l0.1,1.1c0,0.1,0,0.1,0,0.2c0,0,0,0.1,0,0.1   c0,0,0,0.1,0,0.1v0.2h-1.6c0,0,0-0.1-0.1-0.1c0,0,0-0.1,0-0.1c0-0.2,0-0.4,0-0.6c0-0.4,0-0.7-0.1-1.1c0-0.1,0-0.2-0.1-0.3   c-0.1-0.2-0.1-0.3-0.2-0.3c-0.1-0.1-0.3-0.1-0.4-0.1l-0.6,0v2.7h-1.5V39.3L100.4,39.3z M101.9,41.2v1.6h0.8c0.1,0,0.3,0,0.4-0.1   c0.1,0,0.2-0.1,0.2-0.2c0.1-0.3,0.1-0.6,0-0.8c0-0.1-0.1-0.2-0.2-0.3c-0.1-0.1-0.2-0.1-0.3-0.1c-0.2,0-0.4,0-0.6,0L101.9,41.2   L101.9,41.2z M95.1,47.3v-7.9h4.3v1.9h-2.7v1.1H99v1.8h-2.4v1.2h2.8v1.9H95.1L95.1,47.3z M89.7,47.3v-7.9H94v1.9h-2.7v1.1h2.4v1.8   h-2.4v1.2H94v1.9H89.7L89.7,47.3z M84.2,39.3h1.6l1.4,4.3v-4.3h1.5v8h-1.5l-1.4-4.4v4.4h-1.5V39.3L84.2,39.3z M81.7,39.3h1.5v8   h-1.5V39.3L81.7,39.3z M80.6,42.1l-1.5,0.1c0-0.2,0-0.3-0.1-0.5c-0.1-0.2-0.2-0.4-0.3-0.5c-0.4-0.3-0.9,0-1.2,0.7   c-0.1,0.3-0.2,0.7-0.2,1c0,0.6,0,1.2,0.2,1.8c0.1,0.3,0.3,0.6,0.5,0.8c0.3,0.2,0.7,0.2,1-0.2c0.1-0.1,0.1-0.2,0.2-0.3   c0-0.1,0.1-0.2,0.1-0.3h-0.7v-1.7h2.1v4.4h-1l0-0.8c-0.1,0.1-0.1,0.2-0.2,0.3c-0.2,0.3-0.5,0.6-0.8,0.6c-1.3,0.4-2.5-0.8-2.8-2.8   l0,0c-0.2-1.1-0.1-2.2,0.1-3.2c0.3-1.2,1.1-2.1,2-2.2c0.5-0.1,1,0,1.4,0.3C80,39.9,80.5,40.9,80.6,42.1L80.6,42.1L80.6,42.1z    M70.3,39.3h1.6l1.4,4.3v-4.3h1.5v8h-1.5l-1.4-4.4v4.4h-1.5V39.3L70.3,39.3z M64.9,47.3v-7.9h4.3v1.9h-2.7v1.1h2.4v1.8h-2.4v1.2   h2.8v1.9H64.9L64.9,47.3z"></path>
</g>
</svg>
